<svg width="16" height="10" viewBox="0 0 16 10" fill="none" xmlns="http://www.w3.org/2000/svg">
<path fill-rule="evenodd" clip-rule="evenodd" d="M0 2C0 0.895431 0.89543 0 2 0H9.5C10.5158 0 11.3548 0.757325 11.483 1.73817L14.5939 0.35557C15.2551 0.0616648 16 0.545721 16 1.26938V8.73062C16 9.45428 15.2551 9.93834 14.5939 9.64443L11.483 8.26183C11.3548 9.24267 10.5158 10 9.5 10H2C0.89543 10 0 9.10457 0 8V2ZM11.5 7.17506L15 8.73062L15 1.26938L11.5 2.82494V7.17506ZM2 1C1.44772 1 1 1.44772 1 2V8C1 8.55229 1.44772 9 2 9H9.5C10.0523 9 10.5 8.55228 10.5 8V2C10.5 1.44772 10.0523 1 9.5 1H2Z" fill="#AAAAAA"/>
</svg>
