<svg width="21" height="21" viewBox="0 0 21 21" fill="none" xmlns="http://www.w3.org/2000/svg">
<path d="M10.5 4.59375C10.5 4.23131 10.2062 3.9375 9.84375 3.9375C9.48131 3.9375 9.1875 4.23131 9.1875 4.59375V11.8125C9.1875 12.048 9.31369 12.2654 9.51816 12.3823L14.1119 15.0073C14.4266 15.1871 14.8275 15.0778 15.0073 14.7631C15.1871 14.4484 15.0778 14.0475 14.7631 13.8677L10.5 11.4317V4.59375Z" fill="black"/>
<path d="M10.5 21C16.299 21 21 16.299 21 10.5C21 4.70101 16.299 0 10.5 0C4.70101 0 0 4.70101 0 10.5C0 16.299 4.70101 21 10.5 21ZM19.6875 10.5C19.6875 15.5741 15.5741 19.6875 10.5 19.6875C5.42588 19.6875 1.3125 15.5741 1.3125 10.5C1.3125 5.42588 5.42588 1.3125 10.5 1.3125C15.5741 1.3125 19.6875 5.42588 19.6875 10.5Z" fill="black"/>
</svg>
