<svg width="20" height="21" viewBox="0 0 20 21" fill="none" xmlns="http://www.w3.org/2000/svg">
<path d="M10.4419 1.50471C10.1979 1.24843 9.80214 1.24843 9.55806 1.50471L2.05806 9.37971C1.94085 9.50278 1.875 9.6697 1.875 9.84375V19.0312C1.875 19.3937 2.15482 19.6875 2.5 19.6875H8.125C8.47018 19.6875 8.75 19.3937 8.75 19.0312V13.7812H11.25V19.0312C11.25 19.3937 11.5298 19.6875 11.875 19.6875H17.5C17.8452 19.6875 18.125 19.3937 18.125 19.0312V9.84375C18.125 9.6697 18.0592 9.50278 17.9419 9.37971L16.25 7.60317V3.28125C16.25 2.91881 15.9702 2.625 15.625 2.625H14.375C14.0298 2.625 13.75 2.91881 13.75 3.28125V4.97817L10.4419 1.50471ZM3.125 18.375V10.1156L10 2.89683L16.875 10.1156V18.375H12.5V13.125C12.5 12.7626 12.2202 12.4688 11.875 12.4688H8.125C7.77982 12.4688 7.5 12.7626 7.5 13.125V18.375H3.125Z" fill="black"/>
</svg>
