<svg viewBox="0 0 16 16" fill="none" xmlns="http://www.w3.org/2000/svg">
<path d="M8.89658 10.3148C7.97083 9.93092 6.88408 9.73608 5.66667 9.73608C4.44925 9.73608 3.3625 9.93092 2.43733 10.3148C1.56408 10.6758 1 11.5223 1 12.4708V14.4028H10.3333V12.4708C10.3333 11.5223 9.76925 10.6758 8.89658 10.3148Z" fill="currentColor"/>
<path d="M5.66667 9.15279C7.2775 9.15279 8.58333 7.84696 8.58333 6.23612C8.58333 4.62529 7.2775 3.31946 5.66667 3.31946C4.05584 3.31946 2.75 4.62529 2.75 6.23612C2.75 7.84696 4.05584 9.15279 5.66667 9.15279Z" fill="currentColor"/>
<path d="M10.9682 8.6027L10.0938 7.83095L10.4793 7.39345C10.7611 7.07378 10.9168 6.66253 10.9168 6.23612C10.9168 5.8097 10.7617 5.39845 10.4799 5.07937L10.0943 4.64187L10.9688 3.87012L11.3549 4.30762C11.8251 4.83962 12.0835 5.52503 12.0835 6.23612C12.0835 6.9472 11.8245 7.63262 11.3543 8.1652L10.9682 8.6027Z" fill="currentColor"/>
<path d="M12.6219 10.9727L11.8438 10.1036L12.2783 9.7145C13.2665 8.829 13.8335 7.56142 13.8335 6.23608C13.8335 4.91075 13.2665 3.64317 12.2783 2.75825L11.8438 2.36917L12.6219 1.5L13.0565 1.88908C14.2914 2.9945 15.0002 4.57942 15.0002 6.23608C15.0002 7.89275 14.2914 9.47767 13.0565 10.5837L12.6219 10.9727Z" fill="currentColor"/>
</svg>
