<svg width="21" height="21" viewBox="0 0 21 21" fill="none" xmlns="http://www.w3.org/2000/svg">
<path d="M4.59375 0C4.95619 0 5.25 0.293813 5.25 0.65625V1.3125H15.75V0.65625C15.75 0.293813 16.0438 0 16.4062 0C16.7687 0 17.0625 0.293813 17.0625 0.65625V1.3125H18.375C19.8247 1.3125 21 2.48775 21 3.9375V18.375C21 19.8247 19.8247 21 18.375 21H2.625C1.17525 21 0 19.8247 0 18.375V3.9375C0 2.48775 1.17525 1.3125 2.625 1.3125H3.9375V0.65625C3.9375 0.293813 4.23131 0 4.59375 0ZM1.3125 5.25V18.375C1.3125 19.0999 1.90013 19.6875 2.625 19.6875H18.375C19.0999 19.6875 19.6875 19.0999 19.6875 18.375V5.25H1.3125Z" fill="black"/>
</svg>
